# xmcd CD database file
#
# Track frame offsets:
#	182
#	13977
#	27387
#	37342
#	51790
#	65270
#	79732
#	91217
#	104110
#	123950
#	136192
#	148017
#	161485
#	172752
#	181892
#	192377
#	205322
#	216422
#
# Disc length: 3086 seconds
#
# Revision: 0
# Processed by: cddbd v1.5.1PL0 Copyright (c) Steve Scherf et al.
# Submitted via: CDex 1.51
#
DISCID=070c0c12
DTITLE=FRANKIE LAINE - MULE TRAIN
DYEAR=1995
DGENRE=Blues
TTITLE0=MEMORIES IN GOLD
TTITLE1=JEALOUSY
TTITLE2=ON THE SUNNY SIDE OF THE STREET
TTITLE3=MULE TRAIN
TTITLE4=COOL WATER
TTITLE5=THE KID'S LAST FIGHT
TTITLE6=A WOMAN IN LOVE
TTITLE7=MOONLIGHT GAMBLER
TTITLE8=YOU GAVE ME A MOUNTAIN
TTITLE9=JEZEBEL
TTITLE10=THAT'S MY DESIRE
TTITLE11=CRY OF THE WILD
TTITLE12=I BELIEVE
TTITLE13=YOUR CHEATIN'HEART
TTITLE14=RAWHIDE
TTITLE15=THAT LUCKY OLD SUN
TTITLE16=SHINE
TTITLE17=WE'LL BE TOGETHER AGAIN
EXTD=YEAR: 1995
EXTT0=
EXTT1=
EXTT2=
EXTT3=
EXTT4=
EXTT5=
EXTT6=
EXTT7=
EXTT8=
EXTT9=
EXTT10=
EXTT11=
EXTT12=
EXTT13=
EXTT14=
EXTT15=
EXTT16=
EXTT17=
PLAYORDER=
